<?xml version="1.0" encoding="UTF-8" standalone="no"?>
<!-- Created with Inkscape (http://www.inkscape.org/) -->

<svg
   xmlns:dc="http://purl.org/dc/elements/1.1/"
   xmlns:cc="http://creativecommons.org/ns#"
   xmlns:rdf="http://www.w3.org/1999/02/22-rdf-syntax-ns#"
   xmlns:svg="http://www.w3.org/2000/svg"
   xmlns="http://www.w3.org/2000/svg"
   xmlns:sodipodi="http://sodipodi.sourceforge.net/DTD/sodipodi-0.dtd"
   xmlns:inkscape="http://www.inkscape.org/namespaces/inkscape"
   width="2775"
   height="1100"
   viewBox="0 0 734.21868 291.04202"
   version="1.1"
   id="svg8"
   inkscape:version="0.92.2 (5c3e80d, 2017-08-06)"
   sodipodi:docname="JNH LOGO SVG.svg">
  <defs
     id="defs2" />
  <sodipodi:namedview
     id="base"
     pagecolor="#ffffff"
     bordercolor="#666666"
     borderopacity="1.0"
     inkscape:pageopacity="0.0"
     inkscape:pageshadow="2"
     inkscape:zoom="0.35"
     inkscape:cx="1253.1135"
     inkscape:cy="646.42134"
     inkscape:document-units="mm"
     inkscape:current-layer="layer1"
     showgrid="false"
     inkscape:window-width="1366"
     inkscape:window-height="705"
     inkscape:window-x="-8"
     inkscape:window-y="-8"
     inkscape:window-maximized="1"
     inkscape:snap-page="true"
     units="px" />
  <metadata
     id="metadata5">
    <rdf:RDF>
      <cc:Work
         rdf:about="">
        <dc:format>image/svg+xml</dc:format>
        <dc:type
           rdf:resource="http://purl.org/dc/dcmitype/StillImage" />
        <dc:title></dc:title>
      </cc:Work>
    </rdf:RDF>
  </metadata>
  <g
     inkscape:label="Layer 1"
     inkscape:groupmode="layer"
     id="layer1"
     transform="translate(0,-5.9583686)">
    <g
       id="g4552"
       transform="matrix(0.02700169,0,0,-0.02700169,-6.3189609,337.32185)"
       style="fill:#c0242a;stroke:none;fill-opacity:1">
      <path
         id="path4538"
         d="m 6992,11443 3,-438 753,-3 753,-2 -4,-1098 c -4,-1116 -6,-1167 -42,-1304 -9,-36 -425,-402 -896,-788 l -183,-150 h -130 c -145,0 -298,18 -432,50 -490,115 -759,455 -814,1024 -5,60 -10,133 -10,163 v 53 h -465 -465 v -107 c 0,-164 26,-359 76,-573 50,-210 175,-488 300,-665 135,-191 330,-376 529,-502 88,-55 280,-150 363,-179 28,-10 52,-20 52,-23 -1,-14 -588,-415 -930,-637 -200,-130 -694,-434 -705,-434 -1,0 -45,-25 -96,-56 -52,-31 -114,-68 -138,-82 -25,-14 -122,-68 -215,-122 -94,-53 -207,-116 -251,-140 -44,-24 -100,-54 -125,-68 -319,-175 -1090,-569 -1480,-756 -140,-67 -664,-310 -875,-406 -11,-5 -60,-28 -110,-50 -159,-73 -502,-221 -779,-335 -149,-62 -272,-117 -274,-124 -3,-8 3,-9 20,-2 144,60 1148,396 1768,591 167,53 211,66 445,139 72,22 195,60 275,85 142,44 706,210 765,226 17,4 140,39 275,78 305,88 553,157 765,212 61,16 137,36 170,45 167,46 977,249 1175,295 52,12 140,32 195,45 336,79 1121,244 1385,291 47,8 108,19 135,24 91,17 469,80 530,89 490,74 889,123 1235,151 74,6 184,15 245,20 118,11 160,0 84,-20 -24,-7 -102,-31 -174,-55 -312,-102 -883,-282 -1090,-344 -55,-16 -145,-44 -200,-61 -145,-45 -735,-215 -851,-245 -100,-26 -139,-45 -95,-45 13,0 76,9 140,19 64,10 154,24 201,30 47,6 132,17 190,26 142,19 440,58 820,105 173,21 349,44 390,49 41,6 134,18 205,26 72,8 167,20 213,25 45,6 119,14 165,20 45,5 138,16 207,25 422,50 901,103 1585,175 55,6 141,15 190,21 89,9 505,49 720,70 61,5 153,14 205,19 52,5 135,13 184,16 l 89,7 -45,-64 c -58,-81 -111,-187 -133,-264 -35,-122 -18,-316 40,-471 135,-358 504,-652 866,-691 52,-5 58,-8 73,-39 8,-19 20,-34 25,-34 5,0 19,15 30,34 19,31 26,34 85,40 215,22 419,125 587,297 149,152 257,329 299,489 56,216 31,401 -80,582 -17,26 -30,51 -30,54 0,7 15,6 310,-22 349,-32 987,-95 1160,-114 47,-5 130,-14 185,-20 55,-6 264,-29 465,-51 201,-22 401,-44 445,-49 175,-19 521,-60 680,-80 75,-9 250,-30 545,-65 69,-8 159,-20 200,-25 41,-6 199,-26 350,-46 341,-43 445,-56 684,-89 104,-14 223,-30 265,-36 42,-5 111,-17 155,-24 92,-18 86,-17 86,-7 0,10 1,10 -330,103 -140,39 -268,75 -285,80 -16,5 -66,20 -110,33 -44,14 -143,43 -220,66 -170,50 -334,100 -475,145 -58,18 -172,54 -255,80 -213,67 -357,113 -455,145 -601,198 -737,244 -750,251 -19,11 -12,12 95,10 890,-16 2246,-210 3610,-516 33,-7 132,-29 220,-49 88,-20 198,-45 245,-56 47,-11 126,-29 175,-41 226,-51 782,-192 1200,-304 491,-132 756,-206 1085,-302 140,-41 269,-79 285,-83 17,-5 71,-21 120,-35 50,-15 104,-30 120,-35 17,-4 98,-29 180,-55 83,-26 164,-51 180,-55 17,-4 82,-25 145,-45 63,-20 129,-40 145,-45 17,-4 66,-19 110,-33 44,-14 118,-37 165,-52 398,-125 1324,-430 1550,-511 209,-74 290,-101 290,-94 0,9 -29,23 -145,69 -212,83 -711,297 -893,382 -46,21 -86,39 -88,39 -2,0 -39,16 -81,36 -43,20 -123,56 -178,81 -424,191 -1291,615 -1743,852 -332,174 -732,395 -992,546 -30,18 -89,51 -130,75 -76,44 -327,194 -525,315 -161,98 -482,307 -700,456 -104,71 -201,137 -215,147 -87,59 -339,241 -540,391 -570,423 -1128,877 -1718,1396 l -102,90 2,125 3,125 1222,3 1223,2 2,-1002 3,-1003 468,-3 467,-2 -2,2497 -3,2498 h -465 -465 l -3,-1053 -2,-1052 -1223,2 -1222,3 -5,1050 -5,1050 h -465 -465 l -3,-1172 c -1,-645 -6,-1173 -10,-1173 -9,0 -465,459 -656,660 -117,125 -138,143 -147,127 -5,-9 -44,-61 -86,-115 -305,-391 -776,-857 -1264,-1249 -64,-51 -119,-93 -123,-93 -3,0 -6,682 -6,1515 v 1515 l -470,-2 -470,-3 v -1537 c 0,-887 -4,-1538 -9,-1538 -5,0 -145,174 -312,386 -167,212 -420,533 -562,713 -141,179 -276,351 -300,381 -72,93 -525,669 -622,790 -50,63 -156,198 -236,299 -79,101 -191,243 -248,315 -57,72 -113,146 -125,163 l -21,33 h -387 -388 v -1605 c 0,-883 -2,-1605 -5,-1605 -10,0 -359,278 -490,391 -305,261 -611,559 -831,810 -116,132 -265,316 -291,359 -9,17 -20,30 -23,30 -3,0 -58,-57 -124,-128 -156,-167 -598,-612 -608,-612 -4,0 -8,531 -8,1180 v 1180 H 8215 6990 Z m 5823,-1268 c 16,-22 124,-161 240,-310 116,-148 289,-371 385,-495 96,-124 240,-309 320,-411 122,-158 487,-628 742,-957 52,-68 65,-90 55,-99 -20,-18 -263,-150 -540,-292 l -258,-132 -122,62 c -67,34 -149,76 -182,94 -33,18 -100,54 -150,80 -147,79 -506,285 -532,307 -10,8 -13,241 -13,1103 0,600 3,1095 7,1099 7,7 7,7 48,-49 z m 727,-4365 c 0,-38 1,-76 2,-82 1,-10 -19,-12 -74,-10 l -75,4 -67,66 c -38,37 -68,70 -68,74 0,10 44,15 168,17 l 112,1 z m -280,-17 c 67,-67 82,-93 53,-93 -54,0 -202,-127 -246,-210 -19,-37 -23,-60 -24,-136 0,-85 2,-96 35,-160 24,-46 49,-79 78,-101 57,-43 74,-44 61,-1 -12,44 -11,95 2,121 37,71 111,108 176,87 46,-16 99,-64 124,-111 53,-105 -18,-271 -141,-327 -81,-38 -201,-37 -284,1 -82,38 -140,88 -192,166 -70,105 -87,171 -87,332 1,121 3,142 26,197 32,79 98,189 148,246 42,47 55,52 149,55 l 54,1 z m 1000,19 c 4,-4 -11,-26 -35,-49 -40,-39 -46,-41 -115,-46 l -74,-4 6,30 c 3,16 6,43 6,60 v 30 l 102,-6 c 56,-4 105,-10 110,-15 z m 235,-13 c 110,-12 113,-13 138,-44 50,-66 112,-199 124,-266 25,-149 10,-302 -42,-408 -105,-213 -356,-310 -533,-206 -96,56 -158,209 -123,302 15,40 87,111 125,123 46,16 106,-3 149,-45 38,-39 51,-83 41,-151 -6,-49 -6,-50 33,-30 127,66 176,290 95,433 -44,76 -163,171 -248,198 -17,5 -14,12 29,55 55,56 49,55 212,39 z m -631,-1010 c 109,-90 306,-158 419,-144 57,7 160,51 213,92 57,43 49,15 -14,-48 -71,-72 -204,-168 -296,-215 -98,-49 -308,-100 -308,-74 0,5 21,41 46,80 25,40 44,79 42,88 -3,10 -39,70 -81,134 -97,147 -99,153 -21,87 z m -115,-1 c -47,-71 -131,-217 -131,-227 0,-12 70,-130 81,-137 5,-3 9,-12 9,-20 0,-16 -18,-15 -125,8 -192,40 -356,136 -509,297 -65,69 -68,92 -5,41 71,-57 161,-98 232,-105 116,-13 308,53 401,137 52,48 76,50 47,6 z"
         inkscape:connector-curvature="0"
         style="fill:#c0242a;fill-opacity:1" />
      <path
         id="path4540"
         d="m 12333,5340 c -119,-24 -224,-125 -268,-259 -36,-109 -7,-267 71,-382 19,-28 34,-52 34,-53 0,0 -50,-2 -111,-3 -124,-3 -164,-12 -226,-55 -109,-74 -124,-215 -31,-293 28,-24 38,-27 87,-23 47,4 59,10 88,41 43,48 47,114 8,152 -46,47 -107,20 -141,-60 -26,-64 -83,-32 -69,38 21,98 106,152 235,150 88,-2 178,-16 270,-43 161,-48 238,-69 275,-74 56,-8 185,-51 280,-94 174,-78 300,-184 357,-300 29,-59 32,-74 32,-156 0,-70 -5,-104 -23,-148 -33,-85 -113,-146 -138,-106 -4,7 -6,42 -5,78 4,88 -25,146 -88,178 -67,34 -159,23 -212,-25 -55,-49 -78,-185 -44,-252 23,-44 91,-99 138,-112 55,-15 183,-6 226,16 55,28 131,110 161,176 45,93 56,180 37,276 -30,144 -117,285 -214,345 -55,34 -16,35 60,2 96,-43 160,-86 249,-171 75,-72 189,-211 189,-230 -1,-14 -87,-73 -132,-90 -57,-22 -68,-31 -68,-58 0,-16 9,-26 29,-35 40,-16 113,8 169,56 23,19 46,33 52,29 26,-16 108,-244 95,-265 -3,-5 -21,-10 -38,-10 -88,0 -236,-64 -316,-136 -86,-77 -112,-134 -112,-246 0,-112 52,-200 161,-277 l 57,-40 -14,-53 c -34,-127 21,-462 106,-643 65,-137 130,-195 222,-195 45,0 59,5 105,40 111,84 193,248 235,475 15,78 18,300 6,355 -8,34 -6,36 40,70 137,102 184,228 138,374 -36,113 -171,220 -330,261 -32,8 -74,15 -92,15 -17,0 -34,4 -37,8 -11,18 103,302 120,302 4,0 31,-22 61,-50 66,-60 143,-89 187,-69 21,10 26,19 24,38 -2,21 -16,32 -63,56 -60,30 -165,101 -165,112 0,13 88,121 145,178 104,104 202,170 318,213 66,25 74,16 19,-21 -92,-60 -188,-215 -211,-340 -14,-76 2,-193 35,-266 31,-69 105,-156 154,-181 92,-47 238,-39 307,16 69,56 78,76 77,167 0,67 -5,89 -23,119 -48,79 -158,110 -240,66 -68,-35 -83,-63 -89,-160 -5,-87 -13,-108 -42,-108 -28,0 -96,84 -111,137 -22,74 -17,207 10,275 49,127 209,255 425,340 69,27 234,68 276,68 19,0 69,11 110,24 223,71 297,87 412,88 99,1 156,-20 206,-76 25,-29 32,-46 32,-79 0,-46 -13,-67 -41,-67 -11,0 -20,11 -24,30 -7,31 -66,90 -91,90 -42,0 -84,-53 -84,-105 0,-34 33,-81 70,-100 38,-20 100,-19 129,1 36,26 81,104 81,141 0,71 -68,156 -157,194 -31,13 -73,19 -153,21 -61,2 -110,7 -110,11 0,5 8,21 19,35 29,42 67,123 80,174 21,74 11,202 -20,268 -33,69 -111,148 -185,185 -48,24 -68,29 -134,28 -66,0 -85,-5 -130,-29 -171,-93 -239,-336 -131,-472 38,-49 120,-92 174,-92 115,0 203,125 168,240 -32,107 -176,132 -250,43 -42,-50 -61,-40 -61,32 0,82 44,154 115,193 46,25 167,20 227,-8 66,-31 129,-89 158,-146 21,-42 25,-63 25,-139 0,-77 -4,-98 -28,-149 -58,-124 -141,-194 -282,-239 -66,-20 -116,-27 -279,-36 -248,-15 -358,-42 -524,-132 -121,-65 -294,-219 -377,-337 -17,-23 -35,-42 -40,-42 -13,0 -78,67 -124,128 -18,23 -36,42 -40,42 -5,0 -31,-30 -59,-67 -27,-38 -66,-83 -85,-101 l -35,-34 -43,59 c -105,143 -271,291 -404,360 -152,78 -281,111 -495,123 -176,11 -300,42 -390,100 -104,67 -171,183 -178,311 -4,67 -1,83 23,138 32,70 88,126 163,162 59,28 180,31 229,6 68,-36 113,-116 113,-205 0,-58 -22,-66 -60,-20 -50,61 -145,73 -205,26 -74,-58 -73,-178 4,-260 29,-32 46,-41 81,-45 74,-8 128,12 186,71 58,57 74,98 74,187 0,127 -87,268 -193,313 -45,18 -133,26 -184,16 z m 1477,-1270 c 6,-11 31,-43 55,-70 42,-47 44,-52 31,-73 -23,-34 -77,-175 -96,-247 -10,-35 -22,-66 -29,-68 -6,-2 -11,2 -11,10 0,25 -48,163 -79,228 l -31,65 20,25 c 12,14 42,53 68,88 26,34 50,62 54,62 4,0 12,-9 18,-20 z m 169,-735 c 75,-26 149,-74 185,-118 27,-33 31,-47 31,-97 0,-62 -23,-107 -77,-150 l -27,-20 -32,44 c -38,53 -88,89 -158,112 -67,21 -230,16 -278,-9 -51,-27 -102,-76 -124,-119 -11,-21 -24,-38 -29,-38 -6,0 -32,21 -59,48 -138,133 -50,296 193,358 77,19 306,13 375,-11 z m -110,-428 c 109,-101 135,-485 43,-662 -28,-56 -73,-95 -116,-102 -32,-5 -40,-2 -71,32 -70,73 -106,198 -105,365 0,166 31,283 95,358 50,57 98,60 154,9 z"
         inkscape:connector-curvature="0"
         style="fill:#c0242a;fill-opacity:1" />
      <path
         id="path4542"
         d="m 16719,5254 c -225,-40 -408,-173 -502,-365 -55,-111 -68,-164 -72,-281 -2,-83 -4,-90 -43,-150 -74,-113 -102,-202 -102,-323 0,-106 48,-275 77,-275 18,0 17,4 -14,95 -23,68 -28,96 -27,185 0,75 5,120 18,155 22,63 84,175 96,175 5,0 13,-12 16,-27 13,-56 75,-169 119,-220 160,-182 431,-201 581,-41 89,95 113,213 64,325 -53,123 -224,222 -385,223 -100,0 -231,-54 -320,-132 -24,-21 -46,-35 -48,-31 -10,17 12,181 32,233 67,175 205,313 382,383 146,58 374,71 549,32 92,-21 225,-81 299,-137 63,-46 131,-108 131,-119 0,-4 -37,-29 -82,-56 -148,-87 -325,-278 -443,-478 -91,-153 -178,-344 -268,-585 -30,-80 -68,-157 -94,-189 l -20,-24 -79,51 c -106,68 -173,93 -266,99 -146,11 -238,-56 -238,-172 0,-77 40,-130 130,-172 48,-23 69,-26 160,-27 117,0 201,21 294,77 48,28 51,28 76,12 187,-122 439,-123 623,-1 150,100 312,325 390,543 69,191 76,444 17,645 -17,60 -68,177 -90,207 -11,16 -20,34 -20,39 0,17 167,35 279,30 111,-6 155,-19 240,-72 71,-45 88,-25 20,24 -94,68 -241,97 -404,80 -55,-6 -114,-15 -131,-21 -30,-9 -34,-7 -90,49 -130,129 -286,207 -474,238 -106,17 -281,17 -381,-2 z m 914,-391 c 32,-73 49,-159 54,-278 8,-177 -17,-319 -89,-500 -128,-323 -316,-537 -527,-599 -87,-25 -142,-21 -227,18 -41,19 -74,38 -74,42 0,4 38,42 84,86 125,116 197,240 269,463 127,387 138,417 208,536 21,36 59,91 83,122 50,61 158,147 185,147 11,0 24,-15 34,-37 z m -948,-189 c 62,-18 145,-72 179,-117 91,-119 72,-285 -45,-377 -75,-59 -123,-73 -226,-68 -69,3 -102,10 -150,32 -108,49 -198,164 -248,316 l -18,54 54,48 c 66,59 174,117 237,128 57,10 150,3 217,-16 z m -214,-976 c 41,-20 92,-52 113,-70 l 39,-34 -59,-44 c -99,-74 -166,-103 -244,-103 -112,0 -184,54 -196,146 -7,51 11,94 53,126 25,19 39,21 124,19 87,-3 103,-7 170,-40 z"
         inkscape:connector-curvature="0"
         style="fill:#c0242a;fill-opacity:1" />
      <path
         id="path4544"
         d="m 7815,5090 c -100,-11 -247,-48 -326,-80 -118,-49 -195,-114 -240,-201 -17,-33 -25,-40 -42,-36 -237,57 -403,67 -494,30 -82,-33 -152,-89 -174,-140 -23,-54 -26,-175 -5,-224 14,-34 52,-76 60,-68 3,2 -2,26 -11,53 -20,61 -7,169 27,216 30,42 96,85 171,110 55,19 77,21 157,15 88,-6 177,-24 232,-45 25,-10 25,-12 25,-129 0,-124 6,-147 54,-206 l 24,-30 -104,-17 c -132,-22 -215,-50 -302,-102 -86,-51 -204,-173 -242,-249 -92,-188 -63,-408 70,-542 59,-60 123,-98 222,-131 59,-20 92,-24 183,-24 131,0 200,15 318,71 110,51 189,109 288,211 114,117 224,274 209,298 -12,20 -26,7 -110,-105 -146,-192 -281,-303 -460,-377 -276,-113 -524,-47 -588,156 -42,133 -32,265 30,396 29,60 55,94 133,171 114,113 197,160 329,186 98,19 181,10 259,-29 42,-20 52,-33 94,-113 50,-96 76,-122 64,-64 -10,53 -55,141 -89,178 -48,50 -124,81 -202,81 -62,0 -65,1 -81,32 -10,19 -17,56 -17,92 0,66 27,176 44,176 20,0 123,-52 192,-96 125,-81 242,-113 412,-113 232,-1 350,52 417,187 18,38 23,63 23,137 0,82 -3,97 -33,157 -18,37 -46,77 -65,90 -80,61 -289,97 -452,78 z m 321,-71 c 110,-46 157,-117 157,-239 0,-81 -19,-124 -76,-177 -50,-46 -66,-56 -133,-80 -62,-22 -242,-24 -334,-4 -73,16 -400,175 -400,194 0,21 88,125 142,168 68,54 148,93 272,134 86,29 115,34 199,35 88,0 106,-3 173,-31 z"
         inkscape:connector-curvature="0"
         style="fill:#c0242a;fill-opacity:1" />
      <path
         id="path4546"
         d="m 18686,4649 c -10,-6 -34,-46 -53,-88 -42,-92 -58,-111 -145,-167 -72,-46 -104,-84 -94,-110 10,-25 57,-11 154,44 150,85 242,186 242,265 0,56 -53,85 -104,56 z"
         inkscape:connector-curvature="0"
         style="fill:#c0242a;fill-opacity:1" />
      <path
         id="path4548"
         d="m 10979,4488 c -110,-164 -177,-240 -273,-313 -37,-28 -47,-30 -145,-35 -90,-4 -106,-8 -109,-22 -3,-16 5,-18 67,-18 50,0 71,-4 71,-12 -2,-46 -79,-152 -232,-321 -92,-101 -187,-202 -212,-225 -77,-71 -135,-89 -160,-49 -13,21 -7,33 150,279 155,243 166,272 121,339 -21,31 -27,34 -80,37 -45,2 -70,-3 -112,-22 -61,-28 -136,-76 -177,-114 -15,-14 -31,-22 -35,-19 -6,7 7,34 64,135 29,49 12,59 -27,17 -22,-23 -29,-25 -81,-19 -68,8 -76,1 -139,-119 -23,-45 -60,-105 -81,-132 -49,-65 -173,-185 -269,-261 -146,-115 -302,-172 -350,-129 -27,24 -27,116 -1,178 19,43 21,45 73,52 106,15 271,89 341,153 58,55 77,93 77,158 0,91 -54,130 -173,122 -93,-6 -179,-48 -291,-141 -118,-98 -233,-172 -303,-196 -60,-20 -93,-26 -93,-16 0,2 10,23 22,46 16,30 23,66 26,125 4,76 2,87 -22,128 -14,25 -36,52 -48,61 -28,19 -81,19 -118,0 -57,-30 -110,-125 -110,-199 0,-37 30,-114 62,-158 10,-14 7,-26 -17,-70 -63,-117 -142,-215 -197,-244 -15,-8 -45,-14 -67,-14 -32,0 -44,5 -57,25 -29,45 -12,102 87,294 136,262 180,345 190,356 13,13 11,25 -4,25 -8,0 -24,-11 -37,-25 -22,-23 -29,-25 -80,-19 -46,5 -58,3 -72,-12 -26,-30 -188,-333 -214,-402 -17,-44 -24,-83 -24,-134 0,-70 0,-71 42,-111 l 41,-39 76,4 c 165,11 348,117 456,264 37,51 53,64 74,64 50,0 149,36 218,80 32,21 35,10 11,-39 -23,-46 -35,-163 -24,-224 9,-48 75,-120 124,-136 124,-41 302,43 505,238 48,46 90,82 93,79 3,-3 -17,-46 -44,-95 -56,-100 -122,-230 -122,-238 0,-3 15,6 34,20 32,24 36,25 80,13 45,-12 46,-12 79,20 19,18 59,81 91,140 138,260 346,483 438,470 13,-2 24,-11 26,-20 2,-10 -53,-105 -122,-212 -136,-211 -146,-230 -146,-282 0,-86 53,-144 131,-144 107,0 171,53 447,370 17,19 33,33 35,30 3,-3 -14,-45 -39,-94 -37,-74 -44,-97 -44,-147 0,-101 47,-159 127,-159 61,0 140,24 198,61 l 48,31 24,-31 c 37,-47 72,-61 157,-61 87,0 148,22 216,79 30,24 67,43 110,55 103,28 174,71 251,154 84,90 185,240 171,254 -6,6 -34,-26 -78,-88 -78,-111 -151,-189 -209,-226 -48,-30 -163,-73 -172,-64 -3,3 -1,24 6,46 16,55 17,206 2,255 -7,22 -22,64 -33,93 l -21,52 31,58 c 37,69 49,126 32,147 -7,9 -29,15 -50,15 -32,0 -44,-6 -68,-36 -39,-47 -52,-95 -52,-193 v -83 l -86,-114 c -79,-104 -89,-114 -119,-114 -56,0 -115,-64 -115,-127 0,-23 -10,-35 -61,-67 -82,-53 -134,-56 -162,-9 -13,23 -17,42 -12,62 6,26 200,386 261,483 l 24,37 87,3 c 74,3 88,6 91,21 3,15 -6,17 -77,17 -45,0 -81,2 -81,5 0,3 50,91 110,196 61,105 110,195 110,200 0,23 -23,3 -61,-53 z M 8517,4098 c 36,-34 31,-85 -19,-184 -23,-46 -48,-84 -54,-84 -25,0 -57,73 -57,132 0,57 12,87 56,136 26,28 44,28 74,0 z m 827,-11 c 19,-52 -54,-158 -164,-240 -60,-46 -145,-85 -157,-73 -12,11 114,222 171,285 58,65 133,79 150,28 z m 1760,-269 c 1,-61 -4,-83 -28,-131 -15,-32 -34,-61 -42,-64 -14,-5 -104,61 -104,77 0,5 34,54 76,110 53,70 80,98 87,91 6,-6 11,-43 11,-83 z"
         inkscape:connector-curvature="0"
         style="fill:#c0242a;fill-opacity:1" />
      <path
         id="path4550"
         d="m 20445,4192 c -67,-41 -106,-170 -70,-226 16,-23 14,-25 -67,-86 -82,-62 -202,-129 -213,-118 -3,3 4,27 16,54 46,103 26,226 -48,296 -113,108 -394,5 -545,-200 -59,-80 -191,-206 -286,-274 -170,-120 -297,-170 -445,-172 -83,-1 -90,1 -109,24 -17,21 -19,34 -15,85 17,180 246,529 362,551 81,15 123,-39 71,-91 -28,-28 -55,-32 -87,-12 -17,10 -22,9 -35,-7 -39,-53 -2,-116 69,-116 72,0 132,50 143,121 7,42 -25,94 -75,123 -31,18 -40,18 -117,8 -45,-6 -107,-21 -136,-33 -123,-52 -233,-152 -282,-255 -44,-93 -267,-288 -406,-356 -42,-20 -85,-33 -122,-36 -52,-4 -57,-2 -73,22 -21,32 -15,120 13,176 15,31 24,36 72,46 191,38 342,124 393,223 39,79 33,135 -21,184 -103,93 -398,-36 -532,-233 -52,-77 -75,-149 -75,-240 0,-91 22,-141 83,-184 121,-86 296,-20 542,203 43,39 80,71 82,71 2,0 1,-38 0,-84 -3,-69 0,-90 17,-124 36,-71 106,-102 227,-102 190,1 409,104 599,281 66,63 88,70 67,24 -15,-32 -15,-118 -1,-168 12,-43 59,-101 100,-123 33,-17 112,-18 160,-3 121,38 258,135 334,237 22,30 43,44 80,56 64,20 194,101 269,166 31,27 62,50 67,50 6,0 30,14 54,30 87,60 86,39 -6,-121 -100,-173 -119,-216 -119,-271 0,-58 13,-95 48,-130 61,-65 225,-20 371,104 105,88 335,388 313,410 -7,7 -38,-28 -98,-109 -103,-140 -279,-318 -345,-351 -50,-24 -118,-29 -137,-10 -17,17 -15,59 6,98 10,19 70,123 133,230 96,164 114,201 114,236 0,55 -26,84 -74,84 -40,0 -82,-23 -152,-81 -26,-22 -50,-39 -53,-39 -4,0 5,22 19,50 30,59 32,91 7,113 -24,22 -50,21 -87,-1 z m -2097,-84 c 46,-46 -43,-187 -178,-278 -57,-38 -125,-68 -135,-58 -3,3 20,52 52,109 72,129 173,239 219,239 16,0 35,-5 42,-12 z m 1644,-13 c 9,-19 7,-44 -6,-110 -15,-79 -70,-225 -85,-225 -15,0 -71,41 -71,52 0,8 10,18 23,23 17,8 22,18 22,45 0,33 -2,35 -38,38 -51,4 -67,-11 -67,-63 0,-36 5,-48 34,-73 19,-17 44,-33 55,-37 12,-3 21,-11 21,-17 0,-20 -105,-161 -153,-203 -57,-52 -118,-75 -142,-55 -25,21 -20,127 10,207 61,160 187,355 269,415 52,38 111,39 128,3 z"
         inkscape:connector-curvature="0"
         style="fill:#c0242a;fill-opacity:1" />
    </g>
  </g>
</svg>
